# xmcd
#
# Track frame offsets:
#	150
#	21755
#	70658
#	97871
#	163897
#
# Disc length: 2764 seconds
#
# Revision: 1
# Processed by: cddbd v1.5.2PL0 Copyright (c) Steve Scherf et al.
# Submitted via: audiograbber 1.83.01
#
DISCID=340aca05
DTITLE=Grateful Dead - 95-02-20 Delta Centre, Salt Lake City UT
DYEAR=1900
DGENRE=
TTITLE0=Box Of Rain
TTITLE1=Eyes Of The World
TTITLE2=Playing In The Band
TTITLE3=Uncle John's Band
TTITLE4=Drums
EXTD=
EXTT0=
EXTT1=
EXTT2=
EXTT3=
EXTT4=
PLAYORDER=
